<mxfile host="Electron" modified="2024-07-16T08:11:55.764Z" agent="Mozilla/5.0 (Macintosh; Intel Mac OS X 10_15_7) AppleWebKit/537.36 (KHTML, like Gecko) draw.io/24.6.4 Chrome/124.0.6367.207 Electron/30.0.6 Safari/537.36" etag="kdSvQCNAob6iDl-dmllm" version="24.6.4" type="device">
  <diagram name="Page-1" id="5wp1fXAqHAATRWvAQKRi">
    <mxGraphModel dx="1434" dy="854" grid="1" gridSize="10" guides="1" tooltips="1" connect="1" arrows="1" fold="1" page="1" pageScale="1" pageWidth="827" pageHeight="1169" math="0" shadow="0">
      <root>
        <mxCell id="0" />
        <mxCell id="1" parent="0" />
        <mxCell id="Xsgh96qmhGuMHjadYTC_-3" style="edgeStyle=orthogonalEdgeStyle;rounded=0;orthogonalLoop=1;jettySize=auto;html=1;" parent="1" source="Xsgh96qmhGuMHjadYTC_-1" target="Xsgh96qmhGuMHjadYTC_-2" edge="1">
          <mxGeometry relative="1" as="geometry" />
        </mxCell>
        <mxCell id="Xsgh96qmhGuMHjadYTC_-1" value="L&#39;organisateur d&#39;événements (entreprise cliente) commence la planification" style="shape=note2;boundedLbl=1;whiteSpace=wrap;html=1;size=25;verticalAlign=top;align=center;" parent="1" vertex="1">
          <mxGeometry x="40" y="40" width="120" height="120" as="geometry" />
        </mxCell>
        <mxCell id="Xsgh96qmhGuMHjadYTC_-5" style="edgeStyle=orthogonalEdgeStyle;rounded=0;orthogonalLoop=1;jettySize=auto;html=1;" parent="1" source="Xsgh96qmhGuMHjadYTC_-2" target="Xsgh96qmhGuMHjadYTC_-4" edge="1">
          <mxGeometry relative="1" as="geometry" />
        </mxCell>
        <mxCell id="Xsgh96qmhGuMHjadYTC_-2" value="" style="ellipse;fillColor=strokeColor;html=1;" parent="1" vertex="1">
          <mxGeometry x="260" y="85" width="30" height="30" as="geometry" />
        </mxCell>
        <mxCell id="Xsgh96qmhGuMHjadYTC_-7" style="edgeStyle=orthogonalEdgeStyle;rounded=0;orthogonalLoop=1;jettySize=auto;html=1;entryX=0.5;entryY=0;entryDx=0;entryDy=0;" parent="1" source="Xsgh96qmhGuMHjadYTC_-4" target="rvACAd1WGq1HTorJ1tDj-9" edge="1">
          <mxGeometry relative="1" as="geometry">
            <mxPoint x="275" y="260" as="targetPoint" />
          </mxGeometry>
        </mxCell>
        <mxCell id="Xsgh96qmhGuMHjadYTC_-4" value="Choix du type d&#39;événement&amp;nbsp;" style="html=1;align=center;verticalAlign=top;rounded=1;absoluteArcSize=1;arcSize=10;dashed=0;whiteSpace=wrap;" parent="1" vertex="1">
          <mxGeometry x="205" y="180" width="140" height="40" as="geometry" />
        </mxCell>
        <mxCell id="Xsgh96qmhGuMHjadYTC_-11" style="edgeStyle=orthogonalEdgeStyle;rounded=0;orthogonalLoop=1;jettySize=auto;html=1;exitX=1;exitY=0.5;exitDx=0;exitDy=0;entryX=1;entryY=0.5;entryDx=0;entryDy=0;" parent="1" source="rvACAd1WGq1HTorJ1tDj-9" target="rvACAd1WGq1HTorJ1tDj-7" edge="1">
          <mxGeometry relative="1" as="geometry">
            <mxPoint x="390.75" y="443.71000000000004" as="targetPoint" />
            <Array as="points">
              <mxPoint x="390" y="325" />
              <mxPoint x="390" y="480" />
            </Array>
          </mxGeometry>
        </mxCell>
        <mxCell id="Xsgh96qmhGuMHjadYTC_-12" value="Conférence" style="edgeLabel;html=1;align=center;verticalAlign=middle;resizable=0;points=[];" parent="Xsgh96qmhGuMHjadYTC_-11" vertex="1" connectable="0">
          <mxGeometry x="-0.2789" relative="1" as="geometry">
            <mxPoint y="43" as="offset" />
          </mxGeometry>
        </mxCell>
        <mxCell id="Xsgh96qmhGuMHjadYTC_-13" style="edgeStyle=orthogonalEdgeStyle;rounded=0;orthogonalLoop=1;jettySize=auto;html=1;entryX=0.5;entryY=0;entryDx=0;entryDy=0;exitX=0.5;exitY=1;exitDx=0;exitDy=0;" parent="1" source="rvACAd1WGq1HTorJ1tDj-9" target="rvACAd1WGq1HTorJ1tDj-7" edge="1">
          <mxGeometry relative="1" as="geometry">
            <mxPoint x="275" y="443" as="targetPoint" />
          </mxGeometry>
        </mxCell>
        <mxCell id="Xsgh96qmhGuMHjadYTC_-14" value="Fête" style="edgeLabel;html=1;align=center;verticalAlign=middle;resizable=0;points=[];" parent="Xsgh96qmhGuMHjadYTC_-13" vertex="1" connectable="0">
          <mxGeometry x="0.28" relative="1" as="geometry">
            <mxPoint y="-16" as="offset" />
          </mxGeometry>
        </mxCell>
        <mxCell id="kJb6u-3mAhINlPtv4RKA-1" style="edgeStyle=orthogonalEdgeStyle;rounded=0;orthogonalLoop=1;jettySize=auto;html=1;entryX=0.5;entryY=0;entryDx=0;entryDy=0;" parent="1" source="Xsgh96qmhGuMHjadYTC_-8" target="Xsgh96qmhGuMHjadYTC_-15" edge="1">
          <mxGeometry relative="1" as="geometry" />
        </mxCell>
        <mxCell id="Xsgh96qmhGuMHjadYTC_-8" value="Choix du lieu&amp;nbsp;" style="html=1;align=center;verticalAlign=top;rounded=1;absoluteArcSize=1;arcSize=10;dashed=0;whiteSpace=wrap;" parent="1" vertex="1">
          <mxGeometry x="205" y="550" width="140" height="40" as="geometry" />
        </mxCell>
        <mxCell id="Xsgh96qmhGuMHjadYTC_-16" style="edgeStyle=orthogonalEdgeStyle;rounded=0;orthogonalLoop=1;jettySize=auto;html=1;entryX=0;entryY=0.5;entryDx=0;entryDy=0;exitX=0;exitY=0.5;exitDx=0;exitDy=0;fillColor=#d80073;strokeColor=#A50040;" parent="1" source="Xsgh96qmhGuMHjadYTC_-15" target="Xsgh96qmhGuMHjadYTC_-8" edge="1">
          <mxGeometry relative="1" as="geometry" />
        </mxCell>
        <mxCell id="Xsgh96qmhGuMHjadYTC_-17" value="&lt;font color=&quot;#cc0000&quot;&gt;Non&lt;/font&gt;" style="edgeLabel;html=1;align=center;verticalAlign=middle;resizable=0;points=[];" parent="Xsgh96qmhGuMHjadYTC_-16" vertex="1" connectable="0">
          <mxGeometry x="-0.3194" y="1" relative="1" as="geometry">
            <mxPoint x="1" y="-18" as="offset" />
          </mxGeometry>
        </mxCell>
        <mxCell id="Xsgh96qmhGuMHjadYTC_-19" style="edgeStyle=orthogonalEdgeStyle;rounded=0;orthogonalLoop=1;jettySize=auto;html=1;entryX=0.5;entryY=0;entryDx=0;entryDy=0;fillColor=#60a917;strokeColor=#2D7600;" parent="1" source="Xsgh96qmhGuMHjadYTC_-15" target="Xsgh96qmhGuMHjadYTC_-18" edge="1">
          <mxGeometry relative="1" as="geometry" />
        </mxCell>
        <mxCell id="Xsgh96qmhGuMHjadYTC_-20" value="&lt;font color=&quot;#4d9900&quot;&gt;Oui&lt;/font&gt;" style="edgeLabel;html=1;align=center;verticalAlign=middle;resizable=0;points=[];" parent="Xsgh96qmhGuMHjadYTC_-19" vertex="1" connectable="0">
          <mxGeometry x="0.32" y="-2" relative="1" as="geometry">
            <mxPoint x="2" y="-13" as="offset" />
          </mxGeometry>
        </mxCell>
        <mxCell id="Xsgh96qmhGuMHjadYTC_-15" value="Salle disponible" style="rhombus;" parent="1" vertex="1">
          <mxGeometry x="202.5" y="630" width="145" height="130" as="geometry" />
        </mxCell>
        <mxCell id="Xsgh96qmhGuMHjadYTC_-22" style="edgeStyle=orthogonalEdgeStyle;rounded=0;orthogonalLoop=1;jettySize=auto;html=1;entryX=0.5;entryY=0;entryDx=0;entryDy=0;" parent="1" source="Xsgh96qmhGuMHjadYTC_-18" target="Xsgh96qmhGuMHjadYTC_-21" edge="1">
          <mxGeometry relative="1" as="geometry" />
        </mxCell>
        <mxCell id="Xsgh96qmhGuMHjadYTC_-18" value="Configuration de l&#39;événement" style="html=1;align=center;verticalAlign=top;rounded=1;absoluteArcSize=1;arcSize=10;dashed=0;whiteSpace=wrap;" parent="1" vertex="1">
          <mxGeometry x="205" y="810" width="140" height="40" as="geometry" />
        </mxCell>
        <mxCell id="Xsgh96qmhGuMHjadYTC_-23" style="edgeStyle=orthogonalEdgeStyle;rounded=0;orthogonalLoop=1;jettySize=auto;html=1;entryX=0;entryY=0.5;entryDx=0;entryDy=0;exitX=0;exitY=0.5;exitDx=0;exitDy=0;fillColor=#d80073;strokeColor=#A50040;" parent="1" source="Xsgh96qmhGuMHjadYTC_-21" target="Xsgh96qmhGuMHjadYTC_-18" edge="1">
          <mxGeometry relative="1" as="geometry" />
        </mxCell>
        <mxCell id="Xsgh96qmhGuMHjadYTC_-24" value="&lt;font color=&quot;#cc0000&quot;&gt;Non&lt;/font&gt;" style="edgeLabel;html=1;align=center;verticalAlign=middle;resizable=0;points=[];" parent="Xsgh96qmhGuMHjadYTC_-23" vertex="1" connectable="0">
          <mxGeometry x="-0.2451" y="2" relative="1" as="geometry">
            <mxPoint x="1" y="-18" as="offset" />
          </mxGeometry>
        </mxCell>
        <mxCell id="Xsgh96qmhGuMHjadYTC_-26" style="edgeStyle=orthogonalEdgeStyle;rounded=0;orthogonalLoop=1;jettySize=auto;html=1;entryX=0.5;entryY=0;entryDx=0;entryDy=0;fillColor=#60a917;strokeColor=#2D7600;" parent="1" source="Xsgh96qmhGuMHjadYTC_-21" target="Xsgh96qmhGuMHjadYTC_-25" edge="1">
          <mxGeometry relative="1" as="geometry" />
        </mxCell>
        <mxCell id="Xsgh96qmhGuMHjadYTC_-27" value="&lt;font color=&quot;#4d9900&quot;&gt;Oui&lt;/font&gt;" style="edgeLabel;html=1;align=center;verticalAlign=middle;resizable=0;points=[];" parent="Xsgh96qmhGuMHjadYTC_-26" vertex="1" connectable="0">
          <mxGeometry x="0.15" y="1" relative="1" as="geometry">
            <mxPoint x="-1" y="-13" as="offset" />
          </mxGeometry>
        </mxCell>
        <mxCell id="Xsgh96qmhGuMHjadYTC_-21" value="Options disponibles" style="rhombus;" parent="1" vertex="1">
          <mxGeometry x="202.5" y="900" width="145" height="130" as="geometry" />
        </mxCell>
        <mxCell id="kJb6u-3mAhINlPtv4RKA-2" style="edgeStyle=orthogonalEdgeStyle;rounded=0;orthogonalLoop=1;jettySize=auto;html=1;entryX=0.5;entryY=0;entryDx=0;entryDy=0;" parent="1" source="Xsgh96qmhGuMHjadYTC_-25" target="Xsgh96qmhGuMHjadYTC_-28" edge="1">
          <mxGeometry relative="1" as="geometry" />
        </mxCell>
        <mxCell id="Xsgh96qmhGuMHjadYTC_-25" value="Proposition au client" style="html=1;align=center;verticalAlign=top;rounded=1;absoluteArcSize=1;arcSize=10;dashed=0;whiteSpace=wrap;" parent="1" vertex="1">
          <mxGeometry x="205" y="1070" width="140" height="40" as="geometry" />
        </mxCell>
        <mxCell id="Xsgh96qmhGuMHjadYTC_-29" style="edgeStyle=orthogonalEdgeStyle;rounded=0;orthogonalLoop=1;jettySize=auto;html=1;entryX=1;entryY=0.5;entryDx=0;entryDy=0;exitX=1;exitY=0.5;exitDx=0;exitDy=0;fillColor=#d80073;strokeColor=#A50040;" parent="1" source="Xsgh96qmhGuMHjadYTC_-28" target="Xsgh96qmhGuMHjadYTC_-18" edge="1">
          <mxGeometry relative="1" as="geometry" />
        </mxCell>
        <mxCell id="QemnER51k_oVD3o0MXmn-1" value="&lt;font color=&quot;#cc0000&quot;&gt;Non&lt;/font&gt;" style="edgeLabel;html=1;align=center;verticalAlign=middle;resizable=0;points=[];" vertex="1" connectable="0" parent="Xsgh96qmhGuMHjadYTC_-29">
          <mxGeometry x="0.0251" y="-1" relative="1" as="geometry">
            <mxPoint x="1" as="offset" />
          </mxGeometry>
        </mxCell>
        <mxCell id="Xsgh96qmhGuMHjadYTC_-31" style="edgeStyle=orthogonalEdgeStyle;rounded=0;orthogonalLoop=1;jettySize=auto;html=1;entryX=0.5;entryY=0;entryDx=0;entryDy=0;" parent="1" source="Xsgh96qmhGuMHjadYTC_-28" target="Xsgh96qmhGuMHjadYTC_-30" edge="1">
          <mxGeometry relative="1" as="geometry" />
        </mxCell>
        <mxCell id="Xsgh96qmhGuMHjadYTC_-32" value="&lt;font color=&quot;#4d9900&quot;&gt;Oui&lt;/font&gt;" style="edgeLabel;html=1;align=center;verticalAlign=middle;resizable=0;points=[];" parent="Xsgh96qmhGuMHjadYTC_-31" vertex="1" connectable="0">
          <mxGeometry x="0.25" y="-2" relative="1" as="geometry">
            <mxPoint x="2" y="-5" as="offset" />
          </mxGeometry>
        </mxCell>
        <mxCell id="Xsgh96qmhGuMHjadYTC_-28" value="Validation client" style="rhombus;" parent="1" vertex="1">
          <mxGeometry x="202.5" y="1140" width="145" height="130" as="geometry" />
        </mxCell>
        <mxCell id="Xsgh96qmhGuMHjadYTC_-34" style="edgeStyle=orthogonalEdgeStyle;rounded=0;orthogonalLoop=1;jettySize=auto;html=1;" parent="1" source="Xsgh96qmhGuMHjadYTC_-30" target="Xsgh96qmhGuMHjadYTC_-33" edge="1">
          <mxGeometry relative="1" as="geometry" />
        </mxCell>
        <mxCell id="Xsgh96qmhGuMHjadYTC_-30" value="Confirmation de l&#39;événement" style="html=1;align=center;verticalAlign=top;rounded=1;absoluteArcSize=1;arcSize=10;dashed=0;whiteSpace=wrap;" parent="1" vertex="1">
          <mxGeometry x="205" y="1310" width="140" height="40" as="geometry" />
        </mxCell>
        <mxCell id="Xsgh96qmhGuMHjadYTC_-33" value="" style="ellipse;html=1;shape=endState;fillColor=strokeColor;" parent="1" vertex="1">
          <mxGeometry x="260" y="1400" width="30" height="30" as="geometry" />
        </mxCell>
        <mxCell id="Xsgh96qmhGuMHjadYTC_-35" value="Mise en place de l&#39;événement (inscriptions, communication fournisseurs, réservation de la salle, etc.)" style="shape=note2;boundedLbl=1;whiteSpace=wrap;html=1;size=25;verticalAlign=top;align=center;" parent="1" vertex="1">
          <mxGeometry x="430" y="1355" width="150" height="120" as="geometry" />
        </mxCell>
        <mxCell id="Xsgh96qmhGuMHjadYTC_-36" style="edgeStyle=orthogonalEdgeStyle;rounded=0;orthogonalLoop=1;jettySize=auto;html=1;entryX=0.011;entryY=0.503;entryDx=0;entryDy=0;entryPerimeter=0;" parent="1" source="Xsgh96qmhGuMHjadYTC_-33" target="Xsgh96qmhGuMHjadYTC_-35" edge="1">
          <mxGeometry relative="1" as="geometry" />
        </mxCell>
        <mxCell id="rvACAd1WGq1HTorJ1tDj-3" value="" style="edgeStyle=orthogonalEdgeStyle;rounded=0;orthogonalLoop=1;jettySize=auto;html=1;exitX=0;exitY=0.5;exitDx=0;exitDy=0;entryX=0;entryY=0.5;entryDx=0;entryDy=0;" parent="1" source="rvACAd1WGq1HTorJ1tDj-9" target="rvACAd1WGq1HTorJ1tDj-7" edge="1">
          <mxGeometry relative="1" as="geometry">
            <mxPoint x="203" y="325" as="sourcePoint" />
            <mxPoint x="159.5" y="443.46000000000004" as="targetPoint" />
            <Array as="points">
              <mxPoint x="160" y="325" />
              <mxPoint x="160" y="480" />
            </Array>
          </mxGeometry>
        </mxCell>
        <mxCell id="rvACAd1WGq1HTorJ1tDj-4" value="Séminaire" style="edgeLabel;html=1;align=center;verticalAlign=middle;resizable=0;points=[];" parent="rvACAd1WGq1HTorJ1tDj-3" vertex="1" connectable="0">
          <mxGeometry x="-0.2901" y="-1" relative="1" as="geometry">
            <mxPoint x="1" y="45" as="offset" />
          </mxGeometry>
        </mxCell>
        <mxCell id="rvACAd1WGq1HTorJ1tDj-8" style="edgeStyle=orthogonalEdgeStyle;rounded=0;orthogonalLoop=1;jettySize=auto;html=1;entryX=0.5;entryY=0;entryDx=0;entryDy=0;" parent="1" source="rvACAd1WGq1HTorJ1tDj-7" target="Xsgh96qmhGuMHjadYTC_-8" edge="1">
          <mxGeometry relative="1" as="geometry" />
        </mxCell>
        <mxCell id="rvACAd1WGq1HTorJ1tDj-7" value="" style="rhombus;" parent="1" vertex="1">
          <mxGeometry x="246.25" y="450" width="57.5" height="60" as="geometry" />
        </mxCell>
        <mxCell id="rvACAd1WGq1HTorJ1tDj-9" value="" style="rhombus;" parent="1" vertex="1">
          <mxGeometry x="246.25" y="295" width="57.5" height="60" as="geometry" />
        </mxCell>
      </root>
    </mxGraphModel>
  </diagram>
</mxfile>
